<svg width="538" height="88" viewBox="0 0 538 88" fill="none" xmlns="http://www.w3.org/2000/svg">
<path d="M32.5039 21.5469C35.3945 21.5469 38.207 22.1328 40.9414 23.3047C43.7148 24.4375 46.1758 25.8828 48.3242 27.6406C50.5117 29.3594 52.1328 31.1367 53.1875 32.9727L53.832 27.3477C53.832 25.7461 54.3008 24.3789 55.2383 23.2461C56.1758 22.0742 57.4453 21.4883 59.0469 21.4883C60.6484 21.4883 62.0156 22.0742 63.1484 23.2461C64.3203 24.3789 64.9062 25.7461 64.9062 27.3477V27.4648L64.7891 81.7227C64.7891 83.3242 64.2031 84.7109 63.0312 85.8828C61.8984 87.0156 60.5312 87.582 58.9297 87.582C57.3281 87.582 56.0586 87.0156 55.1211 85.8828C54.1836 84.7109 53.7148 83.3242 53.7148 81.7227L53.0703 77.0352C51.0391 80.5117 48.0703 83.1094 44.1641 84.8281C40.2578 86.5078 36.332 87.3477 32.3867 87.3477C27.9727 87.3477 23.832 86.4883 19.9648 84.7695C16.0977 83.0117 12.6992 80.6094 9.76953 77.5625C6.83984 74.5156 4.53516 71.0195 2.85547 67.0742C1.21484 63.1289 0.394531 58.9688 0.394531 54.5938C0.394531 50.2578 1.19531 46.1172 2.79688 42.1719C4.4375 38.1875 6.70312 34.6523 9.59375 31.5664C12.5234 28.4414 15.9219 26 19.7891 24.2422C23.6953 22.4453 27.9336 21.5469 32.5039 21.5469ZM52.7188 54.4766C52.7188 50.6484 51.8203 47.1328 50.0234 43.9297C48.2656 40.7266 45.8633 38.1484 42.8164 36.1953C39.7695 34.2422 36.293 33.2656 32.3867 33.2656C28.5586 33.2656 25.1016 34.2422 22.0156 36.1953C18.9297 38.1484 16.4883 40.7461 14.6914 43.9883C12.8945 47.1914 11.9961 50.668 11.9961 54.418C11.9961 58.207 12.9141 61.7227 14.75 64.9648C16.5859 68.168 19.0469 70.7461 22.1328 72.6992C25.2578 74.6523 28.6953 75.6289 32.4453 75.6289C36.1953 75.6289 39.5938 74.6523 42.6406 72.6992C45.7266 70.7461 48.168 68.168 49.9648 64.9648C51.8008 61.7227 52.7188 58.2266 52.7188 54.4766Z" fill="white"/>
<path d="M73.6953 54.4766C73.6953 50.0625 74.5156 45.7656 76.1562 41.5859C77.7969 37.4062 80.2188 33.7148 83.4219 30.5117C86.2734 27.7383 89.5547 25.5898 93.2656 24.0664C96.9766 22.543 100.824 21.7812 104.809 21.7812C108.871 21.7812 112.484 22.6406 115.648 24.3594C118.812 26.0781 121.645 28.4023 124.145 31.332V6.66406C124.145 5.0625 124.711 3.69531 125.844 2.5625C127.016 1.39062 128.402 0.804688 130.004 0.804688C131.605 0.804688 132.973 1.39062 134.105 2.5625C135.277 3.69531 135.863 5.0625 135.863 6.66406V81.4883C135.863 83.0898 135.277 84.4766 134.105 85.6484C132.973 86.7812 131.605 87.3477 130.004 87.3477C128.402 87.3477 127.191 86.7812 126.371 85.6484C125.59 84.4766 125.082 83.0898 124.848 81.4883L124.145 76.7422C121.918 79.9453 118.969 82.4648 115.297 84.3008C111.664 86.1367 108.031 87.0547 104.398 87.0547C99.9844 87.0547 95.9023 86.1758 92.1523 84.418C88.4414 82.6602 85.1992 80.2773 82.4258 77.2695C79.6523 74.2227 77.5039 70.7461 75.9805 66.8398C74.457 62.9336 73.6953 58.8125 73.6953 54.4766ZM104.281 75.3359C106.82 75.3359 109.34 74.7695 111.84 73.6367C114.34 72.5039 116.469 70.9805 118.227 69.0664C119.984 67.1133 121.332 64.8281 122.27 62.2109C123.246 59.5938 123.734 56.918 123.734 54.1836C123.734 50.4336 122.914 46.9766 121.273 43.8125C119.633 40.6484 117.367 38.1094 114.477 36.1953C111.625 34.2812 108.324 33.3242 104.574 33.3242C100.902 33.3242 97.6016 34.3398 94.6719 36.3711C91.7812 38.3633 89.4961 40.9805 87.8164 44.2227C86.1758 47.4258 85.3555 50.8438 85.3555 54.4766C85.3555 58.1094 86.1758 61.5273 87.8164 64.7305C89.457 67.8945 91.7031 70.4531 94.5547 72.4062C97.4453 74.3594 100.688 75.3359 104.281 75.3359Z" fill="white"/>
<path d="M196.273 21.8398C197.68 21.8398 198.949 22.4062 200.082 23.5391C201.254 24.6719 201.84 25.9219 201.84 27.2891C201.84 28.5 201.645 29.4961 201.254 30.2773L176.527 83.7734C175.473 86 173.676 87.1133 171.137 87.1133C168.52 87.1133 166.762 85.9219 165.863 83.5391L143.715 30.043C143.402 29.3789 143.246 28.4609 143.246 27.2891C143.246 26.0391 143.773 24.8281 144.828 23.6562C145.922 22.4453 147.133 21.8398 148.461 21.8398C151.508 21.8398 153.539 23.0508 154.555 25.4727L171.605 66.957L190.648 25.2383C191.703 22.9727 193.578 21.8398 196.273 21.8398Z" fill="white"/>
<path d="M235.414 21.8398C239.906 21.8398 244.086 22.6992 247.953 24.418C251.859 26.1367 255.277 28.5195 258.207 31.5664C261.137 34.6133 263.422 38.1094 265.062 42.0547C266.742 46 267.582 50.1992 267.582 54.6523C267.582 59.0273 266.742 63.1875 265.062 67.1328C263.383 71.0391 261.059 74.4961 258.09 77.5039C255.16 80.4727 251.742 82.8164 247.836 84.5352C243.969 86.2539 239.828 87.1133 235.414 87.1133C231.039 87.1133 226.898 86.2734 222.992 84.5938C219.125 82.9141 215.707 80.5898 212.738 77.6211C209.809 74.6523 207.504 71.2148 205.824 67.3086C204.145 63.3633 203.305 59.1445 203.305 54.6523C203.305 50.1992 204.145 46 205.824 42.0547C207.504 38.1094 209.809 34.6328 212.738 31.625C215.707 28.5781 219.125 26.1953 222.992 24.4766C226.859 22.7188 231 21.8398 235.414 21.8398ZM215.141 54.7695C215.141 58.5586 216.059 62.0156 217.895 65.1406C219.77 68.2266 222.25 70.6875 225.336 72.5234C228.422 74.3594 231.801 75.2773 235.473 75.2773C239.223 75.2773 242.621 74.3398 245.668 72.4648C248.754 70.5508 251.195 68.0312 252.992 64.9062C254.828 61.7812 255.746 58.3633 255.746 54.6523C255.746 50.8633 254.848 47.3867 253.051 44.2227C251.254 41.0195 248.812 38.4609 245.727 36.5469C242.68 34.6328 239.242 33.6758 235.414 33.6758C231.547 33.6758 228.09 34.6523 225.043 36.6055C221.996 38.5195 219.574 41.0781 217.777 44.2812C216.02 47.4453 215.141 50.9414 215.141 54.7695Z" fill="white"/>
<path d="M287.738 31.0977C289.848 29.0273 292.367 26.9766 295.297 24.9453C298.266 22.9141 301.703 21.8984 305.609 21.8984C310.727 21.8984 314.984 23.2656 318.383 26C321.781 28.6953 324.281 31.8398 325.883 35.4336C327.133 38.2852 327.875 41.1172 328.109 43.9297C328.383 46.7031 328.52 49.3203 328.52 51.7812V81.3711C328.52 82.9727 327.934 84.3594 326.762 85.5312C325.629 86.6641 324.262 87.2305 322.66 87.2305C321.059 87.2305 319.672 86.6641 318.5 85.5312C317.367 84.3594 316.801 82.9727 316.801 81.3711V51.7812C316.801 49.4766 316.684 47.3477 316.449 45.3945C316.254 43.4414 315.824 41.7227 315.16 40.2383C314.418 38.5195 313.266 36.9961 311.703 35.668C310.141 34.3008 308.148 33.6172 305.727 33.6172C299.945 33.6172 295.492 35.8242 292.367 40.2383C289.281 44.6523 287.758 50.6094 287.797 58.1094L287.855 81.4883C287.855 83.0898 287.27 84.4766 286.098 85.6484C284.965 86.7812 283.598 87.3477 281.996 87.3477C280.355 87.3477 278.969 86.7812 277.836 85.6484C276.703 84.4766 276.137 83.0703 276.137 81.4297L276.02 27.582C276.02 25.9805 276.449 24.6133 277.309 23.4805C278.207 22.3086 279.457 21.7227 281.059 21.7227C282.66 21.7227 283.891 22.3086 284.75 23.4805C285.609 24.6133 286.273 25.9805 286.742 27.582L287.738 31.0977Z" fill="white"/>
<path d="M348.734 11.3516C348.734 9.75 349.301 8.38281 350.434 7.25C351.566 6.07812 352.953 5.49219 354.594 5.49219C356.195 5.49219 357.562 6.07812 358.695 7.25C359.867 8.38281 360.453 9.75 360.453 11.3516V23.0117H368.305C369.828 23.0117 371.137 23.5586 372.23 24.6523C373.324 25.7461 373.871 27.0547 373.871 28.5781C373.871 30.1016 373.324 31.4102 372.23 32.5039C371.137 33.5977 369.828 34.1445 368.305 34.1445H360.395L360.336 70.4141V70.5312C360.336 72.4453 360.551 73.7734 360.98 74.5156C361.41 75.2188 362.289 75.5703 363.617 75.5703C365.297 75.5703 366.781 75.1211 368.07 74.2227C368.539 73.9102 369.105 73.6367 369.77 73.4023C370.434 73.1289 371.078 72.9922 371.703 72.9922C373.305 72.9922 374.672 73.5586 375.805 74.6914C376.977 75.8242 377.562 77.1914 377.562 78.793C377.562 80.707 376.781 82.25 375.219 83.4219C373.734 84.5547 372.035 85.4922 370.121 86.2344C368.207 86.9766 366.156 87.3477 363.969 87.3477C359.047 87.3477 355.258 85.8438 352.602 82.8359C349.945 79.7891 348.617 76 348.617 71.4688V70.9414L348.676 34.2031H341.117C339.594 34.2031 338.285 33.6562 337.191 32.5625C336.098 31.4688 335.551 30.1602 335.551 28.6367C335.551 27.1133 336.098 25.8047 337.191 24.7109C338.285 23.6172 339.594 23.0703 341.117 23.0703H348.734V11.3516Z" fill="white"/>
<path d="M390.863 15.8047C389.066 15.8047 387.602 15.2578 386.469 14.1641C385.336 13.0312 384.75 11.6445 384.711 10.0039L384.594 5.55078C384.594 4.06641 385.258 2.875 386.586 1.97656C387.914 1.03906 389.184 0.570312 390.395 0.570312C392.035 0.570312 393.402 1.13672 394.496 2.26953C395.629 3.40234 396.215 4.76953 396.254 6.37109L396.312 9.88672C396.312 11.4102 395.805 12.7773 394.789 13.9883C393.773 15.1992 392.465 15.8047 390.863 15.8047ZM384.535 26.8789C384.535 25.3945 385.16 24.1836 386.41 23.2461C387.66 22.3086 388.871 21.8398 390.043 21.8398C391.762 21.8398 393.227 22.3477 394.438 23.3633C395.648 24.3789 396.254 25.7266 396.254 27.4062V27.4648L396.371 81.7227C396.371 83.2852 395.785 84.6133 394.613 85.707C393.48 86.8008 392.113 87.3477 390.512 87.3477C388.871 87.3477 387.484 86.8008 386.352 85.707C385.219 84.5742 384.652 83.2266 384.652 81.6641L384.535 26.8789Z" fill="white"/>
<path d="M436.039 22.0156C441.234 22.0156 446 23.3047 450.336 25.8828C454.672 28.4609 458.148 31.9375 460.766 36.3125C463.422 40.6484 464.75 45.4727 464.75 50.7852C464.75 51.8789 464.691 52.9922 464.574 54.125C464.418 55.5703 463.754 56.8008 462.582 57.8164C461.449 58.793 460.16 59.2812 458.715 59.2812L417.758 59.3398C418.422 62.1523 419.672 64.7891 421.508 67.25C423.344 69.7109 425.57 71.7031 428.188 73.2266C430.844 74.75 433.734 75.5117 436.859 75.5117C440.219 75.5117 443.227 74.6914 445.883 73.0508C448.539 71.4102 450.609 69.5156 452.094 67.3672C452.562 66.625 453.266 66 454.203 65.4922C455.18 64.9844 456.098 64.7305 456.957 64.7305C458.559 64.7305 459.926 65.3164 461.059 66.4883C462.23 67.6602 462.816 69.0469 462.816 70.6484C462.816 71.8984 462.465 73.0117 461.762 73.9883C459.34 77.543 456 80.6289 451.742 83.2461C447.523 85.8242 442.621 87.1133 437.035 87.1133C432.543 87.1133 428.363 86.2344 424.496 84.4766C420.668 82.7188 417.328 80.3164 414.477 77.2695C411.625 74.2227 409.398 70.7266 407.797 66.7812C406.234 62.7969 405.453 58.5977 405.453 54.1836C405.453 49.9258 406.234 45.8828 407.797 42.0547C409.359 38.1875 411.527 34.75 414.301 31.7422C417.113 28.7344 420.375 26.3711 424.086 24.6523C427.797 22.8945 431.781 22.0156 436.039 22.0156ZM452.68 47.5625C451.938 43.7344 450.023 40.4727 446.938 37.7773C443.852 35.082 440.219 33.7344 436.039 33.7344C431.781 33.7344 428.012 35.1211 424.73 37.8945C421.488 40.668 419.301 43.9102 418.168 47.6211L452.68 47.5625Z" fill="white"/>
<path d="M512.973 29.2227C512.973 32.3477 511.469 34.0859 508.461 34.4375C507.367 34.5547 505.98 34.2031 504.301 33.3828C502.621 32.5234 500.922 32.0938 499.203 32.0938C495.805 32.0938 493.109 32.9727 491.117 34.7305C489.125 36.4492 487.699 38.7734 486.84 41.7031C485.98 44.6328 485.551 47.9141 485.551 51.5469V81.7812C485.551 83.5 485.023 84.8672 483.969 85.8828C482.953 86.8984 481.527 87.4062 479.691 87.4062C477.895 87.4062 476.469 86.8984 475.414 85.8828C474.359 84.8672 473.832 83.4805 473.832 81.7227V27.7578C473.832 26 474.262 24.5547 475.121 23.4219C476.02 22.2891 477.23 21.7227 478.754 21.7227C479.652 21.7227 480.688 22.1133 481.859 22.8945C483.07 23.6367 483.91 24.9258 484.379 26.7617L484.965 30.9805C485.473 29.8867 486.449 28.6172 487.895 27.1719C489.34 25.7266 491.059 24.4766 493.051 23.4219C495.043 22.3281 497.113 21.7812 499.262 21.7812C503.246 21.7812 506.527 22.25 509.105 23.1875C511.684 24.0859 512.973 26.0977 512.973 29.2227Z" fill="white"/>
<path d="M527.902 87.2773C525.246 87.2773 522.922 86.3398 520.93 84.4648C518.977 82.5898 518 80.3047 518 77.6094C518 74.9141 518.977 72.6484 520.93 70.8125C522.922 68.9375 525.246 68 527.902 68C530.559 68 532.883 68.9375 534.875 70.8125C536.867 72.6484 537.863 74.9141 537.863 77.6094C537.863 80.3047 536.867 82.5898 534.875 84.4648C532.883 86.3398 530.559 87.2773 527.902 87.2773Z" fill="#42B4ED"/>
</svg>
