<svg width="538" height="88" viewBox="0 0 538 88" fill="none" xmlns="http://www.w3.org/2000/svg">
<path d="M32.1094 20.9766C35 20.9766 37.8125 21.5625 40.5469 22.7344C43.3203 23.8672 45.7812 25.3125 47.9297 27.0703C50.1172 28.7891 51.7383 30.5664 52.793 32.4023L53.4375 26.7773C53.4375 25.1758 53.9062 23.8086 54.8438 22.6758C55.7812 21.5039 57.0508 20.918 58.6523 20.918C60.2539 20.918 61.6211 21.5039 62.7539 22.6758C63.9258 23.8086 64.5117 25.1758 64.5117 26.7773V26.8945L64.3945 81.1523C64.3945 82.7539 63.8086 84.1406 62.6367 85.3125C61.5039 86.4453 60.1367 87.0117 58.5352 87.0117C56.9336 87.0117 55.6641 86.4453 54.7266 85.3125C53.7891 84.1406 53.3203 82.7539 53.3203 81.1523L52.6758 76.4648C50.6445 79.9414 47.6758 82.5391 43.7695 84.2578C39.8633 85.9375 35.9375 86.7773 31.9922 86.7773C27.5781 86.7773 23.4375 85.918 19.5703 84.1992C15.7031 82.4414 12.3047 80.0391 9.375 76.9922C6.44531 73.9453 4.14062 70.4492 2.46094 66.5039C0.820312 62.5586 0 58.3984 0 54.0234C0 49.6875 0.800781 45.5469 2.40234 41.6016C4.04297 37.6172 6.30859 34.082 9.19922 30.9961C12.1289 27.8711 15.5273 25.4297 19.3945 23.6719C23.3008 21.875 27.5391 20.9766 32.1094 20.9766ZM52.3242 53.9062C52.3242 50.0781 51.4258 46.5625 49.6289 43.3594C47.8711 40.1562 45.4688 37.5781 42.4219 35.625C39.375 33.6719 35.8984 32.6953 31.9922 32.6953C28.1641 32.6953 24.707 33.6719 21.6211 35.625C18.5352 37.5781 16.0938 40.1758 14.2969 43.418C12.5 46.6211 11.6016 50.0977 11.6016 53.8477C11.6016 57.6367 12.5195 61.1523 14.3555 64.3945C16.1914 67.5977 18.6523 70.1758 21.7383 72.1289C24.8633 74.082 28.3008 75.0586 32.0508 75.0586C35.8008 75.0586 39.1992 74.082 42.2461 72.1289C45.332 70.1758 47.7734 67.5977 49.5703 64.3945C51.4062 61.1523 52.3242 57.6562 52.3242 53.9062Z" fill="#0B132B"/>
<path d="M73.3008 53.9062C73.3008 49.4922 74.1211 45.1953 75.7617 41.0156C77.4023 36.8359 79.8242 33.1445 83.0273 29.9414C85.8789 27.168 89.1602 25.0195 92.8711 23.4961C96.582 21.9727 100.43 21.2109 104.414 21.2109C108.477 21.2109 112.09 22.0703 115.254 23.7891C118.418 25.5078 121.25 27.832 123.75 30.7617V6.09375C123.75 4.49219 124.316 3.125 125.449 1.99219C126.621 0.820312 128.008 0.234375 129.609 0.234375C131.211 0.234375 132.578 0.820312 133.711 1.99219C134.883 3.125 135.469 4.49219 135.469 6.09375V80.918C135.469 82.5195 134.883 83.9062 133.711 85.0781C132.578 86.2109 131.211 86.7773 129.609 86.7773C128.008 86.7773 126.797 86.2109 125.977 85.0781C125.195 83.9062 124.688 82.5195 124.453 80.918L123.75 76.1719C121.523 79.375 118.574 81.8945 114.902 83.7305C111.27 85.5664 107.637 86.4844 104.004 86.4844C99.5898 86.4844 95.5078 85.6055 91.7578 83.8477C88.0469 82.0898 84.8047 79.707 82.0312 76.6992C79.2578 73.6523 77.1094 70.1758 75.5859 66.2695C74.0625 62.3633 73.3008 58.2422 73.3008 53.9062ZM103.887 74.7656C106.426 74.7656 108.945 74.1992 111.445 73.0664C113.945 71.9336 116.074 70.4102 117.832 68.4961C119.59 66.543 120.938 64.2578 121.875 61.6406C122.852 59.0234 123.34 56.3477 123.34 53.6133C123.34 49.8633 122.52 46.4062 120.879 43.2422C119.238 40.0781 116.973 37.5391 114.082 35.625C111.23 33.7109 107.93 32.7539 104.18 32.7539C100.508 32.7539 97.207 33.7695 94.2773 35.8008C91.3867 37.793 89.1016 40.4102 87.4219 43.6523C85.7812 46.8555 84.9609 50.2734 84.9609 53.9062C84.9609 57.5391 85.7812 60.957 87.4219 64.1602C89.0625 67.3242 91.3086 69.8828 94.1602 71.8359C97.0508 73.7891 100.293 74.7656 103.887 74.7656Z" fill="#0B132B"/>
<path d="M195.879 21.2695C197.285 21.2695 198.555 21.8359 199.688 22.9688C200.859 24.1016 201.445 25.3516 201.445 26.7188C201.445 27.9297 201.25 28.9258 200.859 29.707L176.133 83.2031C175.078 85.4297 173.281 86.543 170.742 86.543C168.125 86.543 166.367 85.3516 165.469 82.9688L143.32 29.4727C143.008 28.8086 142.852 27.8906 142.852 26.7188C142.852 25.4688 143.379 24.2578 144.434 23.0859C145.527 21.875 146.738 21.2695 148.066 21.2695C151.113 21.2695 153.145 22.4805 154.16 24.9023L171.211 66.3867L190.254 24.668C191.309 22.4023 193.184 21.2695 195.879 21.2695Z" fill="#0B132B"/>
<path d="M235.02 21.2695C239.512 21.2695 243.691 22.1289 247.559 23.8477C251.465 25.5664 254.883 27.9492 257.812 30.9961C260.742 34.043 263.027 37.5391 264.668 41.4844C266.348 45.4297 267.188 49.6289 267.188 54.082C267.188 58.457 266.348 62.6172 264.668 66.5625C262.988 70.4688 260.664 73.9258 257.695 76.9336C254.766 79.9023 251.348 82.2461 247.441 83.9648C243.574 85.6836 239.434 86.543 235.02 86.543C230.645 86.543 226.504 85.7031 222.598 84.0234C218.73 82.3438 215.312 80.0195 212.344 77.0508C209.414 74.082 207.109 70.6445 205.43 66.7383C203.75 62.793 202.91 58.5742 202.91 54.082C202.91 49.6289 203.75 45.4297 205.43 41.4844C207.109 37.5391 209.414 34.0625 212.344 31.0547C215.312 28.0078 218.73 25.625 222.598 23.9062C226.465 22.1484 230.605 21.2695 235.02 21.2695ZM214.746 54.1992C214.746 57.9883 215.664 61.4453 217.5 64.5703C219.375 67.6562 221.855 70.1172 224.941 71.9531C228.027 73.7891 231.406 74.707 235.078 74.707C238.828 74.707 242.227 73.7695 245.273 71.8945C248.359 69.9805 250.801 67.4609 252.598 64.3359C254.434 61.2109 255.352 57.793 255.352 54.082C255.352 50.293 254.453 46.8164 252.656 43.6523C250.859 40.4492 248.418 37.8906 245.332 35.9766C242.285 34.0625 238.848 33.1055 235.02 33.1055C231.152 33.1055 227.695 34.082 224.648 36.0352C221.602 37.9492 219.18 40.5078 217.383 43.7109C215.625 46.875 214.746 50.3711 214.746 54.1992Z" fill="#0B132B"/>
<path d="M287.344 30.5273C289.453 28.457 291.973 26.4062 294.902 24.375C297.871 22.3438 301.309 21.3281 305.215 21.3281C310.332 21.3281 314.59 22.6953 317.988 25.4297C321.387 28.125 323.887 31.2695 325.488 34.8633C326.738 37.7148 327.48 40.5469 327.715 43.3594C327.988 46.1328 328.125 48.75 328.125 51.2109V80.8008C328.125 82.4023 327.539 83.7891 326.367 84.9609C325.234 86.0938 323.867 86.6602 322.266 86.6602C320.664 86.6602 319.277 86.0938 318.105 84.9609C316.973 83.7891 316.406 82.4023 316.406 80.8008V51.2109C316.406 48.9062 316.289 46.7773 316.055 44.8242C315.859 42.8711 315.43 41.1523 314.766 39.668C314.023 37.9492 312.871 36.4258 311.309 35.0977C309.746 33.7305 307.754 33.0469 305.332 33.0469C299.551 33.0469 295.098 35.2539 291.973 39.668C288.887 44.082 287.363 50.0391 287.402 57.5391L287.461 80.918C287.461 82.5195 286.875 83.9062 285.703 85.0781C284.57 86.2109 283.203 86.7773 281.602 86.7773C279.961 86.7773 278.574 86.2109 277.441 85.0781C276.309 83.9062 275.742 82.5 275.742 80.8594L275.625 27.0117C275.625 25.4102 276.055 24.043 276.914 22.9102C277.812 21.7383 279.062 21.1523 280.664 21.1523C282.266 21.1523 283.496 21.7383 284.355 22.9102C285.215 24.043 285.879 25.4102 286.348 27.0117L287.344 30.5273Z" fill="#0B132B"/>
<path d="M348.34 10.7812C348.34 9.17969 348.906 7.8125 350.039 6.67969C351.172 5.50781 352.559 4.92188 354.199 4.92188C355.801 4.92188 357.168 5.50781 358.301 6.67969C359.473 7.8125 360.059 9.17969 360.059 10.7812V22.4414H367.91C369.434 22.4414 370.742 22.9883 371.836 24.082C372.93 25.1758 373.477 26.4844 373.477 28.0078C373.477 29.5312 372.93 30.8398 371.836 31.9336C370.742 33.0273 369.434 33.5742 367.91 33.5742H360L359.941 69.8438V69.9609C359.941 71.875 360.156 73.2031 360.586 73.9453C361.016 74.6484 361.895 75 363.223 75C364.902 75 366.387 74.5508 367.676 73.6523C368.145 73.3398 368.711 73.0664 369.375 72.832C370.039 72.5586 370.684 72.4219 371.309 72.4219C372.91 72.4219 374.277 72.9883 375.41 74.1211C376.582 75.2539 377.168 76.6211 377.168 78.2227C377.168 80.1367 376.387 81.6797 374.824 82.8516C373.34 83.9844 371.641 84.9219 369.727 85.6641C367.812 86.4062 365.762 86.7773 363.574 86.7773C358.652 86.7773 354.863 85.2734 352.207 82.2656C349.551 79.2188 348.223 75.4297 348.223 70.8984V70.3711L348.281 33.6328H340.723C339.199 33.6328 337.891 33.0859 336.797 31.9922C335.703 30.8984 335.156 29.5898 335.156 28.0664C335.156 26.543 335.703 25.2344 336.797 24.1406C337.891 23.0469 339.199 22.5 340.723 22.5H348.34V10.7812Z" fill="#0B132B"/>
<path d="M390.469 15.2344C388.672 15.2344 387.207 14.6875 386.074 13.5938C384.941 12.4609 384.355 11.0742 384.316 9.43359L384.199 4.98047C384.199 3.49609 384.863 2.30469 386.191 1.40625C387.52 0.46875 388.789 0 390 0C391.641 0 393.008 0.566406 394.102 1.69922C395.234 2.83203 395.82 4.19922 395.859 5.80078L395.918 9.31641C395.918 10.8398 395.41 12.207 394.395 13.418C393.379 14.6289 392.07 15.2344 390.469 15.2344ZM384.141 26.3086C384.141 24.8242 384.766 23.6133 386.016 22.6758C387.266 21.7383 388.477 21.2695 389.648 21.2695C391.367 21.2695 392.832 21.7773 394.043 22.793C395.254 23.8086 395.859 25.1562 395.859 26.8359V26.8945L395.977 81.1523C395.977 82.7148 395.391 84.043 394.219 85.1367C393.086 86.2305 391.719 86.7773 390.117 86.7773C388.477 86.7773 387.09 86.2305 385.957 85.1367C384.824 84.0039 384.258 82.6562 384.258 81.0938L384.141 26.3086Z" fill="#0B132B"/>
<path d="M435.645 21.4453C440.84 21.4453 445.605 22.7344 449.941 25.3125C454.277 27.8906 457.754 31.3672 460.371 35.7422C463.027 40.0781 464.355 44.9023 464.355 50.2148C464.355 51.3086 464.297 52.4219 464.18 53.5547C464.023 55 463.359 56.2305 462.188 57.2461C461.055 58.2227 459.766 58.7109 458.32 58.7109L417.363 58.7695C418.027 61.582 419.277 64.2188 421.113 66.6797C422.949 69.1406 425.176 71.1328 427.793 72.6562C430.449 74.1797 433.34 74.9414 436.465 74.9414C439.824 74.9414 442.832 74.1211 445.488 72.4805C448.145 70.8398 450.215 68.9453 451.699 66.7969C452.168 66.0547 452.871 65.4297 453.809 64.9219C454.785 64.4141 455.703 64.1602 456.562 64.1602C458.164 64.1602 459.531 64.7461 460.664 65.918C461.836 67.0898 462.422 68.4766 462.422 70.0781C462.422 71.3281 462.07 72.4414 461.367 73.418C458.945 76.9727 455.605 80.0586 451.348 82.6758C447.129 85.2539 442.227 86.543 436.641 86.543C432.148 86.543 427.969 85.6641 424.102 83.9062C420.273 82.1484 416.934 79.7461 414.082 76.6992C411.23 73.6523 409.004 70.1562 407.402 66.2109C405.84 62.2266 405.059 58.0273 405.059 53.6133C405.059 49.3555 405.84 45.3125 407.402 41.4844C408.965 37.6172 411.133 34.1797 413.906 31.1719C416.719 28.1641 419.98 25.8008 423.691 24.082C427.402 22.3242 431.387 21.4453 435.645 21.4453ZM452.285 46.9922C451.543 43.1641 449.629 39.9023 446.543 37.207C443.457 34.5117 439.824 33.1641 435.645 33.1641C431.387 33.1641 427.617 34.5508 424.336 37.3242C421.094 40.0977 418.906 43.3398 417.773 47.0508L452.285 46.9922Z" fill="#0B132B"/>
<path d="M512.578 28.6523C512.578 31.7773 511.074 33.5156 508.066 33.8672C506.973 33.9844 505.586 33.6328 503.906 32.8125C502.227 31.9531 500.527 31.5234 498.809 31.5234C495.41 31.5234 492.715 32.4023 490.723 34.1602C488.73 35.8789 487.305 38.2031 486.445 41.1328C485.586 44.0625 485.156 47.3438 485.156 50.9766V81.2109C485.156 82.9297 484.629 84.2969 483.574 85.3125C482.559 86.3281 481.133 86.8359 479.297 86.8359C477.5 86.8359 476.074 86.3281 475.02 85.3125C473.965 84.2969 473.438 82.9102 473.438 81.1523V27.1875C473.438 25.4297 473.867 23.9844 474.727 22.8516C475.625 21.7188 476.836 21.1523 478.359 21.1523C479.258 21.1523 480.293 21.543 481.465 22.3242C482.676 23.0664 483.516 24.3555 483.984 26.1914L484.57 30.4102C485.078 29.3164 486.055 28.0469 487.5 26.6016C488.945 25.1562 490.664 23.9062 492.656 22.8516C494.648 21.7578 496.719 21.2109 498.867 21.2109C502.852 21.2109 506.133 21.6797 508.711 22.6172C511.289 23.5156 512.578 25.5273 512.578 28.6523Z" fill="#0B132B"/>
<path d="M527.508 87.707C524.852 87.707 522.527 86.7695 520.535 84.8945C518.582 83.0195 517.605 80.7344 517.605 78.0391C517.605 75.3438 518.582 73.0781 520.535 71.2422C522.527 69.3672 524.852 68.4297 527.508 68.4297C530.164 68.4297 532.488 69.3672 534.48 71.2422C536.473 73.0781 537.469 75.3438 537.469 78.0391C537.469 80.7344 536.473 83.0195 534.48 84.8945C532.488 86.7695 530.164 87.707 527.508 87.707Z" fill="#42B4ED"/>
</svg>
