<svg xmlns="http://www.w3.org/2000/svg" width="87" height="40" fill="none"><path fill="#25292A" d="M35.4 36.832H12.017l2.826-7.427h9.795L17.7 11.175 7.936 36.832H.002L13.732.75h7.936L35.4 36.832ZM66.74 5.254a.87.87 0 0 0-.36-.526.69.69 0 0 0-.585-.084c-.308.084-.564.281-.766.59-.201.31-.326.69-.37 1.14l1.846-.502c.144-.038.233-.096.269-.171.037-.076.033-.198-.012-.363l-.022-.084ZM60.324 7.33a.55.55 0 0 0-.373.107.39.39 0 0 0-.165.33.703.703 0 0 0 .16.426.693.693 0 0 0 .355.272.405.405 0 0 0 .367-.072.44.44 0 0 0 .196-.344 1.576 1.576 0 0 1-.096-.12l-.444-.6Z"/><path fill="#25292A" d="M86.602 18.79c0-9.963-8.077-18.04-18.04-18.04-5.842 0-11.036 2.777-14.332 7.08C50.94 3.536 45.764.763 39.937.75H25.748l2.82 7.41h11.33c5.866 0 10.622 4.756 10.622 10.622a10.62 10.62 0 0 1-10.621 10.621h-3.246l2.825 7.422.001.006h.42c5.841 0 11.033-2.777 14.331-7.08 3.298 4.304 8.49 7.08 14.331 7.08 2.02 0 3.962-.332 5.775-.945l1.28 3.364h7.935l-5.776-15.176a10.655 10.655 0 0 1-6.084 4.863c-.99.305-2.04.469-3.128.469a10.62 10.62 0 0 1-10.621-10.621c0-5.866 4.756-10.623 10.622-10.623 5.867 0 10.623 4.757 10.623 10.623a10.57 10.57 0 0 1-1.41 5.29h8.044c.507-1.672.78-3.447.78-5.285ZM75.48 4.368c.113-.24.293-.304.538-.189a.392.392 0 0 1 .218.222.39.39 0 0 1-.027.31c-.117.25-.296.317-.538.203a.393.393 0 0 1-.219-.226.408.408 0 0 1 .028-.32Zm-.857-.402c.112-.242.292-.305.537-.19a.392.392 0 0 1 .218.222.401.401 0 0 1-.027.31c-.117.248-.296.317-.538.203a.398.398 0 0 1-.219-.226.403.403 0 0 1 .029-.32ZM65.11 2.884a.397.397 0 0 1 .255-.184.394.394 0 0 1 .311.028.4.4 0 0 1 .181.253c.072.266-.02.434-.278.503a.407.407 0 0 1-.314-.028.407.407 0 0 1-.185-.262.386.386 0 0 1 .03-.31ZM58.816 6.62a.398.398 0 0 1-.303.088.405.405 0 0 1-.268-.176c-.16-.213-.13-.401.087-.563a.39.39 0 0 1 .3-.088c.1.015.187.072.26.17.163.22.138.41-.076.57Zm.277-1.217a.391.391 0 0 1 .299-.088c.1.015.188.072.26.17.165.22.139.41-.075.569a.398.398 0 0 1-.303.088.408.408 0 0 1-.269-.176c-.159-.214-.13-.401.088-.563ZM69.79 7.155c-.018.274-.16.403-.425.385a.4.4 0 0 1-.288-.129.41.41 0 0 1-.092-.308.391.391 0 0 1 .129-.281.405.405 0 0 1 .301-.092.39.39 0 0 1 .284.126.39.39 0 0 1 .09.299Zm-.209-.888c-.342.274-.73.234-.803.225a12.943 12.943 0 0 0-6.416 1.685c-.306.227-.62.3-.939.221-.06.214-.193.396-.397.548-.303.225-.63.291-.979.198a1.323 1.323 0 0 1-.725-.511c-.241-.327-.333-.67-.274-1.03a1.08 1.08 0 0 1 .813-.895l-.096-.129.375-.784 1.221 1.645a.52.52 0 0 0 .284.214c.171.044.322-.041.485-.136.311-.178.591-.348.84-.506-.14-.455-.28-.91-.422-1.366.198-.182.394-.365.591-.548.165.526.33 1.052.494 1.58l.294-.112c.033-.63.183-1.174.45-1.633.293-.512.702-.841 1.224-.983.466-.127.885-.065 1.254.183.311.208.522.515.632.918l.15.668c.37.012.683-.005.915-.025.416-.036.548-.082.633-.188.074-.092.08-.189.087-.496.006-.313.01-.588.012-.814l.799-.355-.103 1.577c.001.06-.004.532-.399.849Zm6.705 2.542a1.212 1.212 0 0 1-.76-.174 16.018 16.018 0 0 0-3.89-1.8.963.963 0 0 1-.34-.261c-.235-.292-.265-.67-.192-.991l.541-2.35.846-.221-.623 2.71a.475.475 0 0 0 .02.354c.082.151.255.194.46.247.207.055.512.14.9.26a1.432 1.432 0 0 1 .112-.79c.174-.372.425-.619.751-.742.292-.11.598-.092.918.059.364.171.583.436.66.794.064.293.022.601-.13.925-.11.234-.29.43-.536.59.238.155.475.312.714.467.044.026.23.128.474.082a.69.69 0 0 0 .399-.243l1.318-1.724.861.14-1.632 2.135c-.045.06-.333.473-.87.533Zm1.345 1.685-.539-.558 2.56-2.468.834.27-2.855 2.756Z"/><path fill="#25292A" d="M74.72 5.76c-.283-.133-.502-.03-.661.307a.81.81 0 0 0-.073.458.75.75 0 0 0 .174.41c.154 0 .3-.043.439-.13a.786.786 0 0 0 .304-.335c.076-.16.096-.303.063-.43a.428.428 0 0 0-.246-.28Z"/></svg>